<svg xmlns="http://www.w3.org/2000/svg" xmlns:xlink="http://www.w3.org/1999/xlink" width="500" zoomAndPan="magnify" viewBox="0 0 375 374.999991" height="500" preserveAspectRatio="xMidYMid meet" version="1.0"><path fill="rgb(32.939148%, 32.939148%, 32.939148%)" d="M 187.480469 219.773438 C 180.433594 219.773438 173.800781 217.03125 168.824219 212.042969 C 163.835938 207.066406 161.09375 200.429688 161.09375 193.386719 C 161.09375 186.339844 163.835938 179.707031 168.824219 174.730469 C 173.800781 169.742188 180.433594 167 187.480469 167 C 194.523438 167 201.15625 169.742188 206.136719 174.730469 C 211.125 179.71875 213.867188 186.339844 213.867188 193.386719 C 213.867188 200.429688 211.125 207.066406 206.136719 212.042969 C 201.15625 217.03125 194.523438 219.773438 187.480469 219.773438 Z M 187.480469 168.582031 C 180.855469 168.582031 174.621094 171.164062 169.941406 175.847656 C 165.257812 180.53125 162.675781 186.761719 162.675781 193.386719 C 162.675781 200.007812 165.257812 206.242188 169.941406 210.925781 C 174.621094 215.605469 180.855469 218.191406 187.480469 218.191406 C 194.101562 218.191406 200.335938 215.605469 205.015625 210.925781 C 209.699219 206.242188 212.285156 200.007812 212.285156 193.386719 C 212.285156 186.761719 209.699219 180.53125 205.015625 175.847656 C 200.335938 171.164062 194.101562 168.582031 187.480469 168.582031 Z M 187.480469 168.582031 " fill-opacity="1" fill-rule="nonzero"/><path fill="rgb(19.219971%, 59.609985%, 72.549438%)" d="M 187.378906 337.261719 C 147.363281 337.261719 109.683594 321.683594 81.410156 293.351562 C 53.074219 265.074219 37.5 227.394531 37.5 187.378906 C 37.5 147.363281 53.074219 109.683594 81.410156 81.410156 C 109.683594 53.074219 147.363281 37.5 187.378906 37.5 C 227.394531 37.5 265.074219 53.074219 293.351562 81.410156 C 321.683594 109.746094 337.261719 147.363281 337.261719 187.378906 C 337.261719 227.394531 321.683594 265.074219 293.351562 293.351562 C 265.074219 321.683594 227.394531 337.261719 187.378906 337.261719 Z M 187.378906 46.484375 C 149.761719 46.484375 114.355469 61.164062 87.757812 87.757812 C 61.164062 114.355469 46.484375 149.761719 46.484375 187.378906 C 46.484375 225 61.164062 260.402344 87.757812 287 C 114.355469 313.597656 149.761719 328.273438 187.378906 328.273438 C 225 328.273438 260.402344 313.597656 287 287 C 313.597656 260.402344 328.273438 225 328.273438 187.378906 C 328.273438 149.761719 313.597656 114.355469 287 87.757812 C 260.402344 61.164062 225 46.484375 187.378906 46.484375 Z M 187.378906 46.484375 " fill-opacity="1" fill-rule="nonzero"/><path stroke-linecap="butt" transform="matrix(8.211442, -0.000000000000001492, 0.000000000000001496, 8.235294, 92.521208, 190.466075)" fill="none" stroke-linejoin="miter" d="M 3.749803 -0.000149569 L 18.601888 -0.000149569 " stroke="rgb(19.219971%, 59.609985%, 72.549438%)" stroke-width="1" stroke-opacity="1" stroke-miterlimit="4"/><path stroke-linecap="butt" transform="matrix(8.211442, -0.000000000000001492, 0.000000000000001496, 8.235294, 92.521208, 190.466075)" fill="none" stroke-linejoin="miter" d="M 3.500056 -0.000149569 C 3.500056 0.0985111 3.490542 0.196223 3.471038 0.292512 C 3.45201 0.389276 3.423467 0.483193 3.385887 0.57379 C 3.348306 0.664862 3.301686 0.751664 3.24698 0.833249 C 3.192273 0.915308 3.130431 0.991201 3.060502 1.060453 C 2.991049 1.13018 2.915411 1.192317 2.833589 1.247339 C 2.751292 1.301887 2.665189 1.347897 2.573853 1.385844 C 2.482992 1.423316 2.389278 1.451776 2.292709 1.471223 C 2.19614 1.490196 2.09862 1.500157 2.000149 1.500157 C 1.901677 1.500157 1.804157 1.490196 1.707588 1.471223 C 1.610544 1.451776 1.516829 1.423316 1.425969 1.385844 C 1.335109 1.347897 1.24853 1.301887 1.166708 1.247339 C 1.084886 1.192317 1.008773 1.13018 0.939319 1.060453 C 0.869866 0.991201 0.807548 0.915308 0.752842 0.833249 C 0.698135 0.751664 0.651992 0.664862 0.614411 0.57379 C 0.576354 0.483193 0.547812 0.389276 0.528783 0.292512 C 0.509755 0.196223 0.499765 0.0985111 0.499765 -0.000149569 C 0.499765 -0.098336 0.509755 -0.196048 0.528783 -0.292811 C 0.547812 -0.3891 0.576354 -0.483018 0.614411 -0.574089 C 0.651992 -0.665161 0.698135 -0.751489 0.752842 -0.833548 C 0.807548 -0.915133 0.869866 -0.991026 0.939319 -1.060752 C 1.008773 -1.130479 1.084886 -1.192616 1.166708 -1.247164 C 1.24853 -1.301712 1.335109 -1.348196 1.425969 -1.385669 C 1.516829 -1.423615 1.610544 -1.452075 1.707588 -1.471048 C 1.804157 -1.490496 1.901677 -1.499982 2.000149 -1.499982 C 2.09862 -1.499982 2.19614 -1.490496 2.292709 -1.471048 C 2.389278 -1.452075 2.482992 -1.423615 2.573853 -1.385669 C 2.665189 -1.348196 2.751292 -1.301712 2.833589 -1.247164 C 2.915411 -1.192616 2.991049 -1.130479 3.060502 -1.060752 C 3.130431 -0.991026 3.192273 -0.915133 3.24698 -0.833548 C 3.301686 -0.751489 3.348306 -0.665161 3.385887 -0.574089 C 3.423467 -0.483018 3.45201 -0.3891 3.471038 -0.292811 C 3.490542 -0.196048 3.500056 -0.098336 3.500056 -0.000149569 Z M 3.500056 -0.000149569 " stroke="rgb(19.219971%, 59.609985%, 72.549438%)" stroke-width="1" stroke-opacity="1" stroke-miterlimit="4"/><path stroke-linecap="butt" transform="matrix(8.211442, -0.000000000000001492, 0.000000000000001496, 8.235294, 276.063296, 190.466075)" fill="none" stroke-linejoin="miter" d="M -0.500066 -0.000149569 C -0.500066 0.0985111 -0.50958 0.196223 -0.528609 0.292512 C -0.548113 0.389276 -0.576655 0.483193 -0.614236 0.57379 C -0.651817 0.664862 -0.697961 0.751664 -0.752667 0.833249 C -0.807374 0.915308 -0.869691 0.991201 -0.939145 1.060453 C -1.009074 1.13018 -1.084712 1.192317 -1.166533 1.247339 C -1.248355 1.301887 -1.334934 1.347897 -1.425794 1.385844 C -1.51713 1.423316 -1.610845 1.451776 -1.707414 1.471223 C -1.803982 1.490196 -1.901502 1.500157 -1.999974 1.500157 C -2.098446 1.500157 -2.195966 1.490196 -2.292535 1.471223 C -2.389103 1.451776 -2.482818 1.423316 -2.574154 1.385844 C -2.665014 1.347897 -2.751593 1.301887 -2.833415 1.247339 C -2.915237 1.192317 -2.990874 1.13018 -3.060803 1.060453 C -3.130257 0.991201 -3.192574 0.915308 -3.247281 0.833249 C -3.301987 0.751664 -3.348131 0.664862 -3.385712 0.57379 C -3.423293 0.483193 -3.451835 0.389276 -3.471339 0.292512 C -3.490368 0.196223 -3.499882 0.0985111 -3.499882 -0.000149569 C -3.499882 -0.098336 -3.490368 -0.196048 -3.471339 -0.292811 C -3.451835 -0.3891 -3.423293 -0.483018 -3.385712 -0.574089 C -3.348131 -0.665161 -3.301987 -0.751489 -3.247281 -0.833548 C -3.192574 -0.915133 -3.130257 -0.991026 -3.060803 -1.060752 C -2.990874 -1.130479 -2.915237 -1.192616 -2.833415 -1.247164 C -2.751593 -1.301712 -2.665014 -1.348196 -2.574154 -1.385669 C -2.482818 -1.423615 -2.389103 -1.452075 -2.292535 -1.471048 C -2.195966 -1.490496 -2.098446 -1.499982 -1.999974 -1.499982 C -1.901502 -1.499982 -1.803982 -1.490496 -1.707414 -1.471048 C -1.610845 -1.452075 -1.51713 -1.423615 -1.425794 -1.385669 C -1.334934 -1.348196 -1.248355 -1.301712 -1.166533 -1.247164 C -1.084712 -1.192616 -1.009074 -1.130479 -0.939145 -1.060752 C -0.869691 -0.991026 -0.807374 -0.915133 -0.752667 -0.833548 C -0.697961 -0.751489 -0.651817 -0.665161 -0.614236 -0.574089 C -0.576655 -0.483018 -0.548113 -0.3891 -0.528609 -0.292811 C -0.50958 -0.196048 -0.500066 -0.098336 -0.500066 -0.000149569 Z M -0.500066 -0.000149569 " stroke="rgb(19.219971%, 59.609985%, 72.549438%)" stroke-width="1" stroke-opacity="1" stroke-miterlimit="4"/><path stroke-linecap="butt" transform="matrix(0.000000000000000505, -8.239892, 8.235294, 0.000000000000000504, 232.257894, 269.806974)" fill="none" stroke-linejoin="miter" d="M 3.750137 -0.00000990231 L 16.239397 -0.00000990231 " stroke="rgb(15.289307%, 22.349548%, 28.62854%)" stroke-width="1" stroke-opacity="1" stroke-miterlimit="4"/><path stroke-linecap="butt" transform="matrix(0.000000000000000505, -8.239892, 8.235294, 0.000000000000000504, 232.257894, 269.806974)" fill-opacity="1" fill="rgb(15.289307%, 22.349548%, 28.62854%)" fill-rule="nonzero" stroke-linejoin="miter" d="M 3.49983 -0.00000990231 C 3.49983 0.0986508 3.490349 0.195889 3.471386 0.292652 C 3.45195 0.389415 3.423506 0.482858 3.386055 0.57393 C 3.348129 0.665001 3.302145 0.751329 3.247153 0.833389 C 3.192636 0.915448 3.130533 0.990866 3.060846 1.060593 C 2.991158 1.130319 2.915307 1.192457 2.833294 1.247005 C 2.751281 1.302027 2.665001 1.348037 2.57398 1.385983 C 2.482959 1.423455 2.389094 1.451915 2.292859 1.471363 C 2.19615 1.490336 2.098492 1.499823 1.999887 1.499823 C 1.901281 1.499823 1.804097 1.490336 1.707388 1.471363 C 1.610679 1.451915 1.516814 1.423455 1.425793 1.385983 C 1.334772 1.348037 1.248492 1.302027 1.166479 1.247005 C 1.08494 1.192457 1.009089 1.130319 0.939402 1.060593 C 0.869714 0.990866 0.807611 0.915448 0.75262 0.833389 C 0.698102 0.751329 0.651644 0.665001 0.614193 0.57393 C 0.576267 0.482858 0.547823 0.389415 0.528861 0.292652 C 0.509424 0.195889 0.499943 0.0986508 0.499943 -0.00000990231 C 0.499943 -0.0986706 0.509424 -0.195908 0.528861 -0.292672 C 0.547823 -0.389435 0.576267 -0.482878 0.614193 -0.57395 C 0.651644 -0.665021 0.698102 -0.751349 0.75262 -0.833408 C 0.807611 -0.915467 0.869714 -0.990886 0.939402 -1.060613 C 1.009089 -1.130339 1.08494 -1.192476 1.166479 -1.247024 C 1.248492 -1.302047 1.334772 -1.348057 1.425793 -1.386003 C 1.516814 -1.423475 1.610679 -1.451935 1.707388 -1.471383 C 1.804097 -1.490356 1.901281 -1.499842 1.999887 -1.499842 C 2.098492 -1.499842 2.19615 -1.490356 2.292859 -1.471383 C 2.389094 -1.451935 2.482959 -1.423475 2.57398 -1.386003 C 2.665001 -1.348057 2.751281 -1.302047 2.833294 -1.247024 C 2.915307 -1.192476 2.991158 -1.130339 3.060846 -1.060613 C 3.130533 -0.990886 3.192636 -0.915467 3.247153 -0.833408 C 3.302145 -0.751349 3.348129 -0.665021 3.386055 -0.57395 C 3.423506 -0.482878 3.45195 -0.389435 3.471386 -0.292672 C 3.490349 -0.195908 3.49983 -0.0986706 3.49983 -0.00000990231 Z M 3.49983 -0.00000990231 " stroke="rgb(15.289307%, 22.349548%, 28.62854%)" stroke-width="1" stroke-opacity="1" stroke-miterlimit="4"/><path stroke-linecap="butt" transform="matrix(0.000000000000000505, -8.239892, 8.235294, 0.000000000000000504, 232.257894, 105.096672)" fill-opacity="1" fill="rgb(15.289307%, 22.349548%, 28.62854%)" fill-rule="nonzero" stroke-linejoin="miter" d="M -0.499785 -0.00000990231 C -0.499785 0.0986508 -0.50974 0.195889 -0.528703 0.292652 C -0.548139 0.389415 -0.576583 0.482858 -0.614034 0.57393 C -0.65196 0.665001 -0.697944 0.751329 -0.752936 0.833389 C -0.807453 0.915448 -0.869556 0.990866 -0.939244 1.060593 C -1.008931 1.130319 -1.084782 1.192457 -1.166795 1.247005 C -1.248334 1.302027 -1.335088 1.348037 -1.426109 1.385983 C -1.51713 1.423455 -1.610995 1.451915 -1.70723 1.471363 C -1.803939 1.490336 -1.901597 1.499823 -2.000202 1.499823 C -2.098334 1.499823 -2.195992 1.490336 -2.292701 1.471363 C -2.38941 1.451915 -2.482801 1.423455 -2.573822 1.385983 C -2.664843 1.348037 -2.751597 1.302027 -2.833136 1.247005 C -2.915149 1.192457 -2.991 1.130319 -3.060687 1.060593 C -3.130375 0.990866 -3.192478 0.915448 -3.246995 0.833389 C -3.301987 0.751329 -3.347971 0.665001 -3.385896 0.57393 C -3.423348 0.482858 -3.451792 0.389415 -3.471228 0.292652 C -3.490191 0.195889 -3.500146 0.0986508 -3.500146 -0.00000990231 C -3.500146 -0.0986706 -3.490191 -0.195908 -3.471228 -0.292672 C -3.451792 -0.389435 -3.423348 -0.482878 -3.385896 -0.57395 C -3.347971 -0.665021 -3.301987 -0.751349 -3.246995 -0.833408 C -3.192478 -0.915467 -3.130375 -0.990886 -3.060687 -1.060613 C -2.991 -1.130339 -2.915149 -1.192476 -2.833136 -1.247024 C -2.751597 -1.302047 -2.664843 -1.348057 -2.573822 -1.386003 C -2.482801 -1.423475 -2.38941 -1.451935 -2.292701 -1.471383 C -2.195992 -1.490356 -2.098334 -1.499842 -2.000202 -1.499842 C -1.901597 -1.499842 -1.803939 -1.490356 -1.70723 -1.471383 C -1.610995 -1.451935 -1.51713 -1.423475 -1.426109 -1.386003 C -1.335088 -1.348057 -1.248334 -1.302047 -1.166795 -1.247024 C -1.084782 -1.192476 -1.008931 -1.130339 -0.939244 -1.060613 C -0.869556 -0.990886 -0.807453 -0.915467 -0.752936 -0.833408 C -0.697944 -0.751349 -0.65196 -0.665021 -0.614034 -0.57395 C -0.576583 -0.482878 -0.548139 -0.389435 -0.528703 -0.292672 C -0.50974 -0.195908 -0.499785 -0.0986706 -0.499785 -0.00000990231 Z M -0.499785 -0.00000990231 " stroke="rgb(15.289307%, 22.349548%, 28.62854%)" stroke-width="1" stroke-opacity="1" stroke-miterlimit="4"/><path stroke-linecap="butt" transform="matrix(0.000000000000000506, -8.268907, 8.235294, 0.000000000000000504, 187.499992, 331.617633)" fill="none" stroke-linejoin="miter" d="M 0.0000539278 0.000000948661 L 16.75002 0.000000948661 " stroke="rgb(19.219971%, 59.609985%, 72.549438%)" stroke-width="1" stroke-opacity="1" stroke-miterlimit="4"/><path fill="rgb(19.219971%, 59.609985%, 72.549438%)" d="M 171.03125 191.046875 C 171.03125 190.773438 171.054688 190.507812 171.109375 190.238281 C 171.160156 189.972656 171.238281 189.714844 171.34375 189.464844 C 171.445312 189.214844 171.574219 188.976562 171.722656 188.75 C 171.875 188.523438 172.042969 188.316406 172.234375 188.121094 C 172.425781 187.929688 172.632812 187.757812 172.859375 187.609375 C 173.085938 187.457031 173.320312 187.332031 173.570312 187.226562 C 173.820312 187.121094 174.078125 187.042969 174.34375 186.992188 C 174.609375 186.9375 174.875 186.910156 175.148438 186.910156 L 199.851562 186.910156 C 200.125 186.910156 200.390625 186.9375 200.65625 186.992188 C 200.921875 187.042969 201.179688 187.121094 201.429688 187.226562 C 201.679688 187.332031 201.914062 187.457031 202.140625 187.609375 C 202.367188 187.757812 202.574219 187.929688 202.765625 188.121094 C 202.957031 188.316406 203.125 188.523438 203.277344 188.75 C 203.425781 188.976562 203.554688 189.214844 203.65625 189.464844 C 203.761719 189.714844 203.839844 189.972656 203.890625 190.238281 C 203.945312 190.507812 203.96875 190.773438 203.96875 191.046875 C 203.96875 191.316406 203.945312 191.585938 203.890625 191.851562 C 203.839844 192.117188 203.761719 192.378906 203.65625 192.628906 C 203.554688 192.878906 203.425781 193.117188 203.277344 193.34375 C 203.125 193.570312 202.957031 193.777344 202.765625 193.96875 C 202.574219 194.160156 202.367188 194.332031 202.140625 194.484375 C 201.914062 194.632812 201.679688 194.761719 201.429688 194.867188 C 201.179688 194.96875 200.921875 195.046875 200.65625 195.101562 C 200.390625 195.152344 200.125 195.179688 199.851562 195.179688 L 175.148438 195.179688 C 174.875 195.179688 174.609375 195.152344 174.34375 195.101562 C 174.078125 195.046875 173.820312 194.96875 173.570312 194.867188 C 173.320312 194.761719 173.085938 194.632812 172.859375 194.484375 C 172.632812 194.332031 172.425781 194.160156 172.234375 193.96875 C 172.042969 193.777344 171.875 193.570312 171.722656 193.34375 C 171.574219 193.117188 171.445312 192.878906 171.34375 192.628906 C 171.238281 192.378906 171.160156 192.117188 171.109375 191.851562 C 171.054688 191.585938 171.03125 191.316406 171.03125 191.046875 Z M 171.03125 191.046875 " fill-opacity="1" fill-rule="nonzero"/><path stroke-linecap="butt" transform="matrix(0.000000000000000504, -8.224356, 8.235294, 0.000000000000000504, 138.513173, 269.399894)" fill="none" stroke-linejoin="miter" d="M 3.749996 -0.000176588 L 16.42196 -0.000176588 " stroke="rgb(15.289307%, 22.349548%, 28.62854%)" stroke-width="1" stroke-opacity="1" stroke-miterlimit="4"/><path stroke-linecap="butt" transform="matrix(0.000000000000000504, -8.224356, 8.235294, 0.000000000000000504, 138.513173, 269.399894)" fill-opacity="1" fill="rgb(15.289307%, 22.349548%, 28.62854%)" fill-rule="nonzero" stroke-linejoin="miter" d="M 3.500166 -0.000176588 C 3.500166 0.0984841 3.490192 0.196196 3.471193 0.292485 C 3.452195 0.389249 3.423697 0.483166 3.3857 0.574237 C 3.348178 0.664835 3.302107 0.751637 3.247012 0.833222 C 3.192391 0.915281 3.130171 0.991174 3.060827 1.060426 C 2.991008 1.130153 2.915014 1.19229 2.83332 1.247312 C 2.751627 1.30186 2.665184 1.348345 2.573992 1.385817 C 2.482799 1.423289 2.389232 1.451749 2.292815 1.471196 C 2.195923 1.490169 2.098556 1.50013 1.999764 1.50013 C 1.901447 1.50013 1.80408 1.490169 1.707188 1.471196 C 1.61077 1.451749 1.517203 1.423289 1.42601 1.385817 C 1.334818 1.348345 1.248375 1.30186 1.166682 1.247312 C 1.084988 1.19229 1.008995 1.130153 0.939175 1.060426 C 0.869831 0.991174 0.807611 0.915281 0.752991 0.833222 C 0.697895 0.751637 0.651824 0.664835 0.614302 0.574237 C 0.576305 0.483166 0.547807 0.389249 0.528809 0.292485 C 0.50981 0.196196 0.499836 0.0984841 0.499836 -0.000176588 C 0.499836 -0.098363 0.50981 -0.196075 0.528809 -0.292838 C 0.547807 -0.389127 0.576305 -0.483045 0.614302 -0.574116 C 0.651824 -0.665188 0.697895 -0.751516 0.752991 -0.833575 C 0.807611 -0.91516 0.869831 -0.991053 0.939175 -1.060779 C 1.008995 -1.130506 1.084988 -1.192643 1.166682 -1.247191 C 1.248375 -1.301739 1.334818 -1.348223 1.42601 -1.385696 C 1.517203 -1.423642 1.61077 -1.452102 1.707188 -1.471075 C 1.80408 -1.490523 1.901447 -1.500009 1.999764 -1.500009 C 2.098556 -1.500009 2.195923 -1.490523 2.292815 -1.471075 C 2.389232 -1.452102 2.482799 -1.423642 2.573992 -1.385696 C 2.665184 -1.348223 2.751627 -1.301739 2.83332 -1.247191 C 2.915014 -1.192643 2.991008 -1.130506 3.060827 -1.060779 C 3.130171 -0.991053 3.192391 -0.91516 3.247012 -0.833575 C 3.302107 -0.751516 3.348178 -0.665188 3.3857 -0.574116 C 3.423697 -0.483045 3.452195 -0.389127 3.471193 -0.292838 C 3.490192 -0.196075 3.500166 -0.098363 3.500166 -0.000176588 Z M 3.500166 -0.000176588 " stroke="rgb(15.289307%, 22.349548%, 28.62854%)" stroke-width="1" stroke-opacity="1" stroke-miterlimit="4"/><path stroke-linecap="butt" transform="matrix(0.000000000000000504, -8.224356, 8.235294, 0.000000000000000504, 138.513173, 103.499693)" fill-opacity="1" fill="rgb(15.289307%, 22.349548%, 28.62854%)" fill-rule="nonzero" stroke-linejoin="miter" d="M -0.500171 -0.000176588 C -0.500171 0.0984841 -0.509671 0.196196 -0.528669 0.292485 C -0.548143 0.389249 -0.57664 0.483166 -0.614162 0.574237 C -0.651684 0.664835 -0.69823 0.751637 -0.752851 0.833222 C -0.807471 0.915281 -0.869691 0.991174 -0.939511 1.060426 C -1.008855 1.130153 -1.084849 1.19229 -1.166542 1.247312 C -1.24871 1.30186 -1.335153 1.348345 -1.425871 1.385817 C -1.517063 1.423289 -1.610631 1.451749 -1.707523 1.471196 C -1.80394 1.490169 -1.901307 1.50013 -2.000099 1.50013 C -2.098416 1.50013 -2.196258 1.490169 -2.292675 1.471196 C -2.389092 1.451749 -2.483134 1.423289 -2.573852 1.385817 C -2.665044 1.348345 -2.751487 1.30186 -2.833181 1.247312 C -2.915349 1.19229 -2.990868 1.130153 -3.060687 1.060426 C -3.130506 0.991174 -3.192251 0.915281 -3.247347 0.833222 C -3.301967 0.751637 -3.348039 0.664835 -3.386036 0.574237 C -3.423557 0.483166 -3.452055 0.389249 -3.471054 0.292485 C -3.490527 0.196196 -3.500026 0.0984841 -3.500026 -0.000176588 C -3.500026 -0.098363 -3.490527 -0.196075 -3.471054 -0.292838 C -3.452055 -0.389127 -3.423557 -0.483045 -3.386036 -0.574116 C -3.348039 -0.665188 -3.301967 -0.751516 -3.247347 -0.833575 C -3.192251 -0.91516 -3.130506 -0.991053 -3.060687 -1.060779 C -2.990868 -1.130506 -2.915349 -1.192643 -2.833181 -1.247191 C -2.751487 -1.301739 -2.665044 -1.348223 -2.573852 -1.385696 C -2.483134 -1.423642 -2.389092 -1.452102 -2.292675 -1.471075 C -2.196258 -1.490523 -2.098416 -1.500009 -2.000099 -1.500009 C -1.901307 -1.500009 -1.80394 -1.490523 -1.707523 -1.471075 C -1.610631 -1.452102 -1.517063 -1.423642 -1.425871 -1.385696 C -1.335153 -1.348223 -1.24871 -1.301739 -1.166542 -1.247191 C -1.084849 -1.192643 -1.008855 -1.130506 -0.939511 -1.060779 C -0.869691 -0.991053 -0.807471 -0.91516 -0.752851 -0.833575 C -0.69823 -0.751516 -0.651684 -0.665188 -0.614162 -0.574116 C -0.57664 -0.483045 -0.548143 -0.389127 -0.528669 -0.292838 C -0.509671 -0.196075 -0.500171 -0.098363 -0.500171 -0.000176588 Z M -0.500171 -0.000176588 " stroke="rgb(15.289307%, 22.349548%, 28.62854%)" stroke-width="1" stroke-opacity="1" stroke-miterlimit="4"/></svg>